<svg xmlns="http://www.w3.org/2000/svg" version="1.0" width="600" height="243" viewBox="0 0 600 243" preserveAspectRatio="xMidYMid meet"><default:g xmlns:default="http://www.w3.org/2000/svg" transform="translate(0.000000,243.000000) scale(0.100000,-0.100000)" fill="#000000" stroke="none"><default:path d="M230 2421 c0 -5 6 -16 13 -23 7 -7 16 -21 20 -30 4 -11 12 -15 22 -12 8 3 15 1 15 -5 0 -14 77 -15 85 -1 4 6 10 8 15 5 4 -3 21 10 36 27 23 28 26 29 22 11 -4 -13 -2 -23 4 -23 5 0 7 -4 4 -8 -3 -5 64 -8 148 -7 130 0 156 3 170 18 10 9 13 17 8 17 -5 0 -9 8 -8 18 1 15 -14 17 -173 19 l-174 2 -28 -30 c-39 -42 -99 -41 -139 1 -29 31 -40 37 -40 21z m261 -44 c-8 -8 -11 -3 -11 19 1 25 2 27 11 11 8 -14 8 -22 0 -30z m99 10 c0 6 -6 14 -12 16 -7 3 -3 6 10 6 13 1 20 -3 17 -9 -3 -5 -1 -10 4 -10 6 0 11 7 11 15 0 20 10 19 27 -2 8 -10 12 -13 9 -6 -4 7 3 10 19 8 14 -1 25 3 25 9 0 6 7 0 16 -12 8 -12 21 -22 27 -22 7 0 4 7 -6 14 -16 13 -15 14 13 18 19 3 27 1 21 -5 -5 -5 -7 -15 -5 -22 4 -9 -28 -12 -128 -12 -120 0 -134 2 -134 18 0 12 7 16 23 14 13 -1 23 2 23 7 0 6 9 0 20 -13 10 -13 19 -19 20 -12z"/><default:path d="M520 2390 c0 -5 5 -10 10 -10 6 0 10 5 10 10 0 6 -4 10 -10 10 -5 0 -10 -4 -10 -10z"/><default:path d="M670 2390 c0 -5 5 -10 10 -10 6 0 10 5 10 10 0 6 -4 10 -10 10 -5 0 -10 -4 -10 -10z"/><default:path d="M318 2423 c7 -3 16 -2 19 1 4 3 -2 6 -13 5 -11 0 -14 -3 -6 -6z"/><default:path d="M390 2419 c0 -6 -6 -9 -13 -6 -8 3 -14 -1 -14 -8 0 -10 5 -11 18 -4 22 11 34 29 20 29 -6 0 -11 -5 -11 -11z"/><default:path d="M3696 2405 c12 -19 22 -24 37 -19 11 3 17 2 14 -3 -7 -11 22 -11 39 0 18 10 25 -5 11 -22 -10 -14 -10 -14 4 -4 9 7 20 9 25 5 4 -4 2 1 -6 11 -10 13 -11 20 -2 26 7 4 8 11 1 21 -8 13 -11 13 -20 -2 -13 -23 -89 -26 -89 -3 0 8 -7 15 -15 15 -14 0 -13 -3 1 -25z"/><default:path d="M3727 2418 c2 -5 17 -8 34 -8 16 0 29 3 29 8 0 4 -15 7 -34 7 -19 0 -32 -3 -29 -7z"/><default:path d="M3936 2404 c3 -16 1 -23 -6 -19 -6 3 -7 0 -4 -9 5 -12 9 -13 19 -3 10 9 10 16 1 27 -10 13 -9 13 8 0 21 -17 83 -23 92 -9 3 5 10 6 16 3 6 -4 5 -10 -3 -15 -10 -6 -10 -9 -2 -9 17 0 25 17 13 25 -8 5 -8 11 -1 19 14 16 -18 18 -38 2 -11 -8 -15 -8 -18 2 -3 6 -14 12 -26 11 -21 0 -21 -1 -2 -9 19 -8 19 -9 -2 -9 -12 -1 -25 4 -28 9 -12 19 -24 10 -19 -16z"/><default:path d="M4210 2421 c0 -5 6 -14 14 -20 20 -17 64 5 47 22 -9 9 -14 8 -22 -3 -8 -11 -12 -12 -16 -2 -5 14 -23 17 -23 3z"/><default:path d="M4429 2412 c6 -10 7 -22 3 -26 -3 -4 1 -4 10 -1 9 4 19 1 24 -6 4 -7 3 -10 -4 -5 -6 3 -13 2 -17 -3 -3 -6 -13 -8 -23 -5 -14 5 -14 4 -2 -4 8 -6 19 -8 25 -4 19 12 47 13 39 0 -4 -7 -3 -8 4 -4 6 4 8 14 5 23 -4 10 -2 14 4 10 13 -8 61 28 51 38 -3 4 -18 -1 -33 -11 -22 -15 -29 -15 -53 -3 -15 7 -31 15 -35 17 -5 3 -4 -5 2 -16z"/><default:path d="M4460 2425 c0 -8 29 -12 39 -5 9 5 4 8 -13 8 -14 0 -26 -2 -26 -3z"/><default:path d="M4700 2422 c0 -9 46 -52 56 -52 3 0 2 5 -1 10 -3 6 -1 10 4 10 6 0 11 -4 11 -10 0 -5 7 -7 15 -3 9 3 14 8 11 10 -3 3 5 14 17 24 18 15 19 18 6 19 -9 0 -22 -7 -29 -15 -7 -8 -21 -15 -32 -15 -10 0 -21 7 -24 15 -6 16 -34 21 -34 7z"/><default:path d="M4745 2420 c3 -5 11 -10 16 -10 6 0 7 5 4 10 -3 6 -11 10 -16 10 -6 0 -7 -4 -4 -10z"/><default:path d="M4970 2418 c0 -10 5 -18 11 -18 5 0 7 -5 3 -12 -4 -6 -3 -8 4 -4 5 3 13 0 15 -6 4 -10 6 -10 6 0 1 10 6 10 22 2 14 -8 24 -8 33 -1 7 6 17 7 21 3 5 -4 5 -1 1 6 -4 6 -3 12 3 12 5 0 12 -6 14 -12 3 -7 6 -8 6 -2 1 5 -6 19 -15 30 -8 10 -13 14 -10 8 14 -28 -87 -34 -103 -6 -10 16 -10 16 -11 0z"/><default:path d="M5008 2423 c7 -3 16 -2 19 1 4 3 -2 6 -13 5 -11 0 -14 -3 -6 -6z"/><default:path d="M5048 2423 c7 -3 16 -2 19 1 4 3 -2 6 -13 5 -11 0 -14 -3 -6 -6z"/><default:path d="M5204 2421 c-2 -2 -21 -4 -41 -4 l-38 1 30 -10 c17 -6 34 -16 38 -22 6 -7 7 -5 4 4 -4 12 3 15 29 15 18 -1 31 2 28 7 -3 4 -1 8 5 8 5 0 13 -5 17 -11 5 -8 9 -8 14 1 5 8 13 9 21 4 23 -14 39 -13 39 3 0 13 -3 13 -15 3 -8 -7 -15 -8 -15 -3 0 10 -107 13 -116 4z"/><default:path d="M5371 2421 c-8 -5 -10 -14 -6 -21 6 -9 10 -8 17 4 12 21 7 28 -11 17z"/><default:path d="M5434 2413 c3 -7 0 -13 -6 -13 -6 0 -8 -3 -5 -6 7 -7 37 14 37 26 0 3 -7 7 -15 7 -9 0 -14 -6 -11 -14z"/><default:path d="M5473 2410 c1 -17 27 -24 27 -8 0 4 5 8 11 8 5 0 7 -6 3 -12 -5 -9 -2 -9 9 1 23 18 22 18 -17 23 -27 3 -34 0 -33 -12z"/><default:path d="M5580 2422 c0 -7 -7 -9 -17 -5 -15 5 -16 3 -5 -8 9 -10 15 -10 24 -1 6 6 9 15 5 19 -4 3 -7 1 -7 -5z"/><default:path d="M5880 2267 c-4 -145 -3 -170 11 -183 21 -19 46 -18 57 4 5 9 12 90 16 180 6 142 5 162 -9 162 -13 0 -15 -24 -15 -169 0 -132 -3 -170 -13 -174 -32 -12 -36 9 -39 178 l-3 170 -5 -168z"/><default:path d="M5671 2404 c0 -11 3 -14 6 -6 3 7 2 16 -1 19 -3 4 -6 -2 -5 -13z"/><default:path d="M4612 2380 c0 -19 2 -27 5 -17 2 9 2 25 0 35 -3 9 -5 1 -5 -18z"/><default:path d="M4278 2378 c5 -5 16 -8 23 -6 8 3 3 7 -10 11 -17 4 -21 3 -13 -5z"/><default:path d="M4245 2370 c3 -5 8 -10 11 -10 2 0 4 5 4 10 0 6 -5 10 -11 10 -5 0 -7 -4 -4 -10z"/><default:path d="M4720 2371 c0 -6 4 -13 10 -16 6 -3 7 1 4 9 -7 18 -14 21 -14 7z"/><default:path d="M253 2185 l-33 -14 -1 -113 c0 -62 -1 -513 -2 -1001 -2 -833 -1 -889 15 -901 10 -7 15 -15 13 -18 -3 -3 7 -4 22 -2 16 1 32 -4 40 -14 12 -16 13 -16 7 1 -6 16 43 17 976 17 539 0 985 2 990 5 5 3 15 -2 23 -10 17 -17 31 -20 22 -5 -4 6 572 10 1655 10 1040 0 1660 -4 1660 -10 0 -5 12 2 28 16 l27 26 0 992 c0 967 0 993 -19 1012 -19 19 -54 19 -1780 19 -969 -1 -1770 -1 -1781 -2 -11 0 -427 1 -925 3 -754 2 -910 0 -937 -11z m1867 -30 c16 -10 57 -96 74 -155 17 -62 42 -234 50 -354 l6 -80 -22 21 c-49 44 -67 47 -106 19 -20 -14 -38 -24 -40 -22 -2 3 1 53 7 113 21 210 31 398 22 428 -7 23 -9 9 -10 -60 -1 -114 -27 -426 -47 -571 -9 -62 -13 -121 -10 -132 9 -27 121 -102 153 -102 29 0 59 15 91 43 29 27 29 80 -2 188 -14 48 -27 129 -31 189 -13 199 -52 374 -100 444 -14 20 -25 38 -25 39 0 1 795 1 1767 0 l1768 -3 0 -997 0 -998 -1684 0 c-1487 0 -1685 2 -1691 15 -5 8 -13 62 -20 120 -6 58 -17 128 -25 155 -8 28 -17 82 -20 120 -12 128 -14 140 -29 180 -16 41 -20 117 -8 147 4 9 31 33 61 53 49 34 55 36 79 24 14 -8 36 -31 50 -52 22 -33 24 -45 20 -102 -6 -75 -37 -126 -93 -152 -31 -15 -36 -15 -59 1 -14 9 -26 12 -26 6 0 -17 46 -33 73 -26 14 3 40 21 58 38 31 32 32 32 25 8 -4 -14 -11 -115 -16 -225 -9 -206 -16 -253 -47 -288 -14 -15 -15 -19 -3 -15 8 2 24 21 34 42 15 32 21 75 28 235 5 122 16 235 29 298 16 83 18 110 9 143 -12 45 -71 110 -99 110 -20 0 -120 -63 -133 -83 -13 -21 -9 -135 7 -174 8 -21 19 -85 24 -143 6 -58 17 -134 25 -170 8 -36 20 -103 26 -150 6 -47 13 -93 16 -103 5 -16 -46 -17 -1013 -15 l-1018 3 0 620 c0 341 3 638 7 660 5 27 4 33 -2 20 -5 -12 -9 115 -9 336 -1 196 1 358 3 360 7 7 1865 1 1876 -6z m98 -577 c36 -27 43 -40 61 -108 12 -42 21 -93 21 -113 0 -32 -5 -39 -43 -62 -24 -14 -51 -25 -59 -25 -8 0 -44 19 -79 43 -72 48 -72 45 -49 178 11 66 17 78 44 96 42 29 56 28 104 -9z"/><default:path d="M3766 2078 c-42 -87 -71 -221 -85 -403 -6 -71 -18 -152 -26 -179 -8 -27 -20 -78 -26 -113 -11 -61 -10 -65 12 -90 29 -30 71 -53 99 -53 27 0 140 77 149 102 4 11 2 59 -5 106 -17 116 -46 462 -50 587 -1 55 -3 103 -3 108 -1 4 -8 7 -15 7 -8 0 -31 -32 -50 -72z m69 -273 c9 -104 18 -200 20 -212 5 -28 -9 -29 -42 -3 -34 26 -42 26 -92 -11 -41 -31 -42 -31 -37 -8 3 13 10 80 16 149 15 172 35 262 78 350 l37 75 2 -75 c1 -41 10 -160 18 -265z m1 -245 c17 -10 23 -30 34 -106 7 -51 10 -100 7 -107 -3 -8 -26 -28 -51 -45 -82 -55 -82 -56 -132 -32 -24 12 -49 30 -54 40 -20 38 28 213 68 245 49 39 65 45 87 31 11 -7 29 -19 41 -26z"/><default:path d="M375 2094 c-50 -54 -14 -138 60 -138 29 0 43 7 61 28 28 31 30 56 9 95 -25 50 -91 57 -130 15z m78 -30 c-1 -16 1 -22 3 -12 3 9 13 19 22 23 9 3 13 3 10 -1 -4 -4 -3 -16 3 -28 10 -21 10 -21 -6 -1 -16 19 -16 19 -12 -12 4 -26 2 -33 -11 -33 -13 0 -14 -2 -4 -9 11 -6 9 -9 -7 -14 -11 -3 -19 -1 -18 3 1 5 -7 15 -17 23 -12 9 -19 26 -19 46 0 24 -3 29 -9 17 -5 -9 -6 -21 -3 -26 3 -6 1 -10 -4 -10 -6 0 -11 5 -11 11 0 17 20 50 28 45 5 -3 14 -1 22 4 23 15 35 5 33 -26z m-39 -83 c-6 -6 -34 20 -34 32 0 6 8 2 19 -9 10 -10 17 -21 15 -23z"/><default:path d="M423 2083 c-15 -5 -17 -23 -4 -23 5 0 11 7 15 15 3 8 4 15 3 14 -1 0 -8 -3 -14 -6z"/><default:path d="M1816 2111 c-6 -10 -12 -67 -21 -193 -10 -147 -42 -379 -64 -465 -25 -99 -20 -119 43 -162 72 -50 156 -36 202 34 16 24 16 36 5 121 -8 62 -10 150 -6 252 5 149 4 162 -22 267 -21 83 -32 111 -45 113 -16 3 -18 -5 -19 -60 l-1 -63 -13 68 c-17 82 -41 118 -59 88z m29 -21 c11 -19 47 -226 60 -350 l14 -125 -5 100 c-2 55 -7 159 -10 230 -7 156 4 157 38 4 20 -92 23 -128 20 -263 l-3 -157 -56 32 c-55 31 -56 32 -90 15 -20 -9 -37 -15 -40 -13 -2 3 5 76 17 163 11 88 23 208 26 267 7 99 13 122 29 97z m124 -652 c13 -85 9 -103 -35 -137 -54 -43 -120 -35 -181 22 -27 24 -28 48 -4 145 16 70 19 75 57 91 l39 18 56 -30 56 -31 12 -78z"/><default:path d="M2766 2112 c-16 -26 -38 -157 -61 -352 -14 -124 -30 -243 -35 -265 -11 -48 -13 -205 -2 -222 14 -23 64 -33 157 -33 83 0 96 2 105 19 14 27 13 84 -4 177 -8 44 -17 120 -21 169 -8 105 -29 218 -56 294 -10 30 -23 82 -29 115 -17 97 -20 106 -35 106 -7 0 -16 -3 -19 -8z m34 -58 c0 -16 16 -86 35 -155 35 -123 48 -195 59 -319 l6 -65 -40 43 c-45 50 -60 50 -120 1 -42 -35 -54 -37 -46 -6 3 12 13 94 21 182 16 167 39 307 56 353 8 21 12 23 19 12 6 -8 10 -29 10 -46z m63 -516 c24 -26 41 -58 48 -86 12 -56 16 -173 5 -190 -9 -14 -131 -16 -190 -2 -49 11 -56 22 -56 90 0 95 11 161 29 168 9 3 32 18 51 34 47 38 68 35 113 -14z"/><default:path d="M3133 2108 c-6 -7 -13 -38 -16 -68 -4 -31 -20 -100 -37 -155 -17 -55 -35 -143 -41 -195 -6 -52 -17 -142 -25 -200 -16 -118 -18 -218 -5 -239 7 -10 34 -12 120 -9 144 4 146 6 145 131 -1 50 -6 112 -12 137 -6 25 -18 117 -27 205 -16 164 -38 301 -57 368 -11 38 -28 47 -45 25z m42 -63 c15 -59 69 -505 61 -512 -2 -2 -16 7 -32 20 -67 56 -87 56 -138 -1 l-32 -35 8 89 c10 119 24 188 59 301 16 53 29 111 29 130 0 32 17 79 25 71 2 -2 11 -30 20 -63z m10 -495 c21 -16 43 -30 50 -30 28 0 37 -228 10 -250 -10 -9 -52 -13 -123 -14 l-107 -1 -3 60 c-5 96 14 171 56 222 43 51 65 54 117 13z"/><default:path d="M4100 2105 c-8 -9 -19 -44 -26 -78 l-12 -62 -1 57 c-1 31 -5 59 -10 62 -17 11 -32 -22 -57 -125 -24 -97 -26 -115 -20 -264 3 -96 1 -197 -6 -251 -14 -107 -5 -130 62 -164 55 -28 87 -25 145 13 45 29 50 36 53 73 2 23 -6 77 -17 120 -18 73 -49 321 -68 538 -8 90 -19 110 -43 81z m33 -117 c4 -62 16 -183 27 -268 11 -85 20 -156 20 -157 0 -1 -20 5 -44 14 -44 17 -45 16 -85 -10 -22 -15 -44 -27 -49 -27 -5 0 -12 69 -15 153 -5 140 -4 161 19 257 36 151 48 151 40 0 -3 -69 -8 -170 -10 -225 l-5 -100 10 100 c5 55 18 151 30 214 36 198 53 212 62 49z m12 -425 c37 -18 43 -30 67 -144 6 -31 9 -63 5 -72 -3 -9 -28 -30 -54 -47 -52 -33 -94 -34 -140 -4 -49 31 -57 56 -43 145 10 66 16 82 34 89 11 5 35 18 51 29 36 25 36 25 80 4z"/><default:path d="M1493 2098 c-4 -7 -10 -105 -14 -218 -7 -197 -24 -314 -58 -402 -13 -34 -17 -106 -7 -135 10 -31 88 -83 123 -83 38 0 109 47 124 82 6 15 8 42 5 60 -4 18 -10 110 -15 203 -8 166 -9 172 -49 270 -22 55 -43 120 -47 145 -11 70 -42 109 -62 78z m47 -76 c5 -28 26 -92 46 -144 35 -86 38 -103 43 -226 3 -72 3 -132 0 -132 -3 0 -20 11 -39 25 -38 28 -57 31 -95 13 -14 -6 -28 -9 -31 -6 -3 3 2 43 11 89 11 55 18 145 19 259 2 173 9 220 28 187 4 -9 13 -38 18 -65z m49 -493 c45 -28 48 -34 59 -92 16 -84 -3 -123 -71 -151 -46 -19 -48 -19 -80 -2 -62 36 -77 56 -77 104 0 25 8 69 17 99 13 41 21 53 37 53 12 0 28 5 36 10 22 14 28 13 79 -21z"/><default:path d="M4405 2080 c-8 -16 -15 -38 -15 -49 0 -21 -25 -99 -64 -204 -22 -57 -27 -89 -30 -202 -3 -75 -10 -162 -17 -195 -17 -90 7 -132 98 -169 30 -12 36 -11 77 13 71 41 89 71 81 131 -3 28 -15 79 -25 115 -34 115 -50 237 -49 379 1 152 -6 211 -27 211 -7 0 -20 -13 -29 -30z m44 -210 c1 -97 7 -174 19 -233 l18 -89 -30 8 c-52 12 -86 8 -109 -15 -13 -11 -27 -21 -31 -21 -4 0 -6 57 -4 128 4 119 7 133 41 220 21 52 42 116 47 143 5 27 15 60 22 72 12 21 13 19 19 -23 4 -25 8 -110 8 -190z m13 -335 c30 -12 37 -22 47 -59 17 -70 14 -133 -8 -155 -58 -58 -126 -63 -180 -12 -24 23 -31 37 -31 68 1 69 17 114 52 144 37 32 69 36 120 14z"/><default:path d="M1108 2048 c-9 -8 -27 -60 -42 -124 -21 -87 -26 -136 -26 -235 0 -82 -5 -137 -15 -164 -17 -48 -18 -135 -1 -190 l12 -40 60 0 c32 -1 65 -4 72 -9 7 -4 20 -5 28 -2 9 3 24 -5 37 -20 30 -34 51 -24 85 40 l27 51 -3 264 c-2 192 -6 278 -16 312 -19 64 -34 89 -51 89 -12 0 -15 -18 -16 -92 0 -89 -1 -92 -14 -58 -7 19 -14 60 -14 91 -1 76 -22 95 -51 47 -11 -18 -21 -40 -22 -48 -1 -8 -4 9 -7 39 -6 58 -17 69 -43 49z m34 -140 c4 -155 23 -213 68 -213 36 0 52 54 59 199 7 132 15 138 44 30 13 -44 17 -103 17 -222 0 -184 2 -179 -81 -143 -38 17 -52 18 -107 9 -48 -8 -66 -8 -75 1 -20 20 -15 242 6 331 29 117 38 140 52 140 10 0 14 -32 17 -132z m78 47 c0 -30 7 -73 16 -95 18 -44 13 -114 -10 -145 -28 -39 -62 24 -72 132 -6 62 -4 74 20 121 15 29 31 50 36 47 6 -3 10 -31 10 -60z m45 -415 c22 -11 45 -20 52 -20 18 0 26 -78 13 -133 -15 -68 -47 -127 -68 -126 -9 0 -36 24 -59 54 -32 41 -39 56 -30 66 10 11 9 11 -5 0 -10 -7 -18 -24 -18 -37 0 -29 -15 -38 -66 -40 -41 -1 -42 0 -48 35 -9 54 -7 167 3 193 8 21 15 23 98 25 73 2 97 -1 128 -17z m-65 -242 c0 -12 -24 -10 -37 3 -6 6 -9 18 -6 26 5 11 9 11 24 -3 11 -9 19 -21 19 -26z"/><default:path d="M1136 1682 c-3 -5 1 -9 9 -9 8 0 12 4 9 9 -3 4 -7 8 -9 8 -2 0 -6 -4 -9 -8z"/><default:path d="M4802 2038 c-7 -7 -12 -30 -12 -52 l-1 -41 -21 40 c-26 51 -26 51 -40 37 -7 -7 -15 -45 -19 -86 -8 -85 -30 -140 -28 -71 3 117 -1 147 -18 143 -10 -2 -26 -24 -37 -53 -16 -43 -21 -88 -27 -305 -8 -281 -3 -330 47 -389 31 -37 37 -38 66 -9 13 13 32 21 44 20 13 -2 26 4 32 14 6 11 11 13 16 5 4 -6 29 -11 56 -11 57 0 59 3 67 115 4 59 1 92 -11 125 -11 32 -16 81 -16 169 0 97 -5 145 -26 229 -30 127 -43 149 -72 120z m56 -104 c17 -63 25 -128 29 -224 7 -167 5 -169 -92 -151 -58 10 -69 10 -103 -8 -77 -39 -73 -48 -75 154 -2 154 1 188 17 233 10 29 22 55 27 58 5 3 9 -37 10 -88 0 -52 8 -121 17 -158 15 -58 20 -65 41 -65 18 0 31 10 45 35 18 29 21 55 24 160 2 69 5 131 8 138 10 31 30 0 52 -84z m-90 27 c34 -74 24 -218 -18 -256 -25 -23 -36 -14 -50 43 -10 43 -9 57 10 112 12 35 21 77 20 94 -4 72 6 74 38 7z m139 -453 c15 -42 16 -103 2 -166 l-10 -50 -47 2 c-43 1 -48 3 -57 32 l-10 31 -33 -36 c-18 -20 -39 -45 -47 -56 -17 -25 -41 -13 -68 33 -37 64 -43 212 -8 212 9 1 32 10 51 20 29 16 50 19 125 15 l90 -4 12 -33z m-129 -215 c-11 -14 -38 -18 -38 -6 0 3 8 15 17 25 12 14 18 15 24 6 4 -7 3 -18 -3 -25z"/><default:path d="M750 2026 c0 -2 8 -10 18 -17 15 -13 16 -12 3 4 -13 16 -21 21 -21 13z"/><default:path d="M5266 2017 c3 -10 9 -15 12 -12 3 3 0 11 -7 18 -10 9 -11 8 -5 -6z"/><default:path d="M2417 2013 c-3 -5 -5 -60 -6 -123 0 -63 -8 -185 -17 -270 -22 -215 -27 -313 -15 -329 10 -16 187 -39 216 -28 28 11 18 95 -45 387 -11 53 -25 134 -30 182 -6 48 -15 100 -21 115 -19 51 -68 89 -82 66z m59 -45 c8 -16 21 -77 29 -136 7 -59 23 -147 35 -196 12 -48 19 -90 16 -93 -3 -3 -21 6 -41 21 -22 17 -42 25 -54 21 -22 -7 -59 -45 -44 -45 6 0 16 7 23 15 17 21 54 19 75 -5 10 -11 24 -20 31 -20 7 0 18 -18 24 -39 14 -52 28 -199 20 -211 -7 -11 -180 3 -200 15 -13 8 -13 87 0 154 5 28 12 75 14 104 20 212 28 349 23 394 -3 28 -3 54 0 56 10 11 34 -6 49 -35z"/><default:path d="M5049 2008 c14 -19 32 -15 30 5 0 8 -2 8 -6 -1 -4 -10 -8 -10 -21 0 -15 12 -16 11 -3 -4z"/><default:path d="M3468 1993 c-29 -34 -38 -62 -52 -171 -8 -60 -21 -135 -30 -168 -29 -113 -57 -295 -54 -347 l3 -52 53 1 c181 5 193 15 174 152 -20 147 -42 413 -41 497 0 44 1 86 0 93 -1 18 -36 15 -53 -5z m46 -175 c3 -101 9 -205 13 -232 l6 -50 -28 22 c-29 23 -60 29 -70 12 -11 -17 -65 -42 -60 -28 16 52 48 218 56 291 5 49 14 98 20 110 14 27 40 57 49 57 4 0 10 -82 14 -182z m-14 -270 c32 -23 37 -39 49 -149 12 -110 11 -112 -100 -125 -52 -6 -98 -9 -103 -6 -18 10 17 252 37 252 5 0 22 11 39 25 36 30 41 31 78 3z"/><default:path d="M787 1935 c-3 -29 -10 -62 -16 -72 -8 -14 -10 -7 -11 34 0 100 -23 109 -69 28 -51 -91 -66 -164 -53 -269 7 -51 8 -96 3 -105 -5 -9 -18 -45 -30 -80 -20 -60 -20 -66 -5 -89 9 -13 24 -27 35 -29 10 -3 21 -14 24 -24 7 -22 41 -43 56 -34 5 4 16 1 24 -5 8 -6 23 -9 34 -5 11 3 31 0 43 -7 43 -23 90 -1 118 57 24 49 25 104 5 171 -12 40 -13 63 -4 127 17 117 9 185 -32 264 -25 50 -40 68 -54 68 -11 0 -24 6 -28 13 -18 28 -34 11 -40 -43z m48 -58 c6 -61 3 -82 -15 -132 -13 -33 -30 -68 -38 -78 -14 -16 -17 -16 -25 -1 -14 25 0 145 23 189 11 22 20 59 20 85 1 41 2 43 15 27 7 -10 16 -51 20 -90z m-92 -72 c-5 -124 -4 -142 11 -154 15 -13 19 -12 35 5 10 10 28 45 41 77 20 51 22 70 17 143 -8 105 3 107 53 8 30 -59 35 -79 34 -139 0 -38 -3 -98 -8 -132 -8 -57 -10 -61 -28 -52 -13 7 -29 7 -50 0 -43 -15 -81 -14 -104 4 -10 8 -33 15 -50 15 -28 0 -32 4 -38 38 -11 67 -6 179 9 223 25 70 66 134 76 118 4 -8 5 -77 2 -154z m7 -256 c33 -18 45 -19 71 -10 44 15 84 14 98 -3 7 -8 17 -41 23 -74 10 -52 9 -67 -6 -107 -31 -81 -92 -97 -136 -35 -25 35 -45 38 -62 10 -18 -28 -46 -25 -59 8 -21 50 -32 72 -36 68 -3 -2 0 -14 7 -25 13 -25 3 -27 -22 -4 -23 21 -23 36 2 108 32 93 48 102 120 64z m39 -233 c9 -10 8 -15 -4 -20 -17 -6 -45 2 -45 13 0 23 32 28 49 7z"/><default:path d="M5110 1975 c-6 -7 -18 -11 -25 -8 -18 6 -68 -71 -91 -140 -13 -41 -15 -67 -9 -136 11 -120 10 -158 -5 -221 -7 -32 -10 -71 -6 -91 15 -84 92 -144 134 -105 10 9 21 13 24 10 4 -3 32 -2 63 1 48 6 58 11 71 36 8 16 21 29 29 29 8 0 22 11 30 24 18 27 14 54 -21 133 -20 47 -21 58 -12 130 5 43 7 101 3 130 -7 54 -77 213 -94 213 -18 0 -31 -37 -31 -87 -1 -61 -18 -37 -27 37 -6 56 -15 67 -33 45z m48 -134 c16 -22 20 -42 18 -106 -1 -100 -17 -108 -53 -28 -23 49 -27 71 -26 139 0 47 6 91 14 105 13 23 14 22 20 -30 4 -29 16 -66 27 -80z m-74 32 c-6 -81 -4 -94 21 -156 29 -73 54 -97 75 -72 12 14 12 36 7 244 -1 38 2 66 9 68 6 2 27 -32 47 -75 33 -69 37 -87 37 -157 0 -115 -9 -157 -30 -150 -9 3 -38 -4 -65 -16 -42 -19 -52 -20 -86 -9 -20 7 -48 10 -62 6 -23 -5 -24 -3 -33 62 -14 117 -9 181 20 247 24 52 52 95 63 95 2 0 1 -39 -3 -87z m206 -365 c31 -72 36 -120 16 -137 -22 -18 -33 -6 -15 15 12 15 12 17 -1 12 -8 -2 -22 -24 -30 -49 -17 -49 -43 -61 -60 -30 -16 31 -43 26 -79 -14 -38 -42 -54 -44 -91 -7 -40 41 -54 99 -40 168 14 68 43 92 91 75 44 -15 81 -14 105 4 10 8 33 15 50 15 29 0 34 -5 54 -52z m-105 -199 c0 -8 -10 -15 -22 -17 -25 -4 -30 7 -11 26 15 15 33 10 33 -9z"/><default:path d="M5443 1915 c0 -8 4 -12 9 -9 5 3 6 10 3 15 -9 13 -12 11 -12 -6z"/><default:path d="M410 1899 c0 -6 -7 -9 -15 -6 -8 4 -17 2 -21 -4 -4 -6 -11 -6 -20 2 -10 8 -18 9 -25 2 -22 -22 -61 -161 -64 -233 l-4 -75 9 69 c9 73 58 226 72 226 4 0 8 -37 8 -82 0 -140 27 -190 75 -141 15 14 16 30 11 97 -3 45 -8 96 -12 115 -11 54 16 34 54 -40 54 -106 64 -239 23 -291 -16 -18 -20 -19 -59 -7 -37 11 -48 10 -78 -4 -19 -9 -48 -17 -64 -17 -25 0 -29 4 -33 33 -3 29 -4 29 -5 -8 -2 -38 0 -41 28 -43 17 -1 49 7 72 19 33 17 46 19 65 10 13 -6 37 -11 53 -11 26 0 31 -5 41 -42 12 -48 5 -112 -17 -145 -19 -30 -55 -29 -84 2 -27 29 -37 30 -76 11 -35 -19 -60 -7 -79 37 -8 18 -14 26 -15 19 0 -29 31 -72 58 -78 15 -3 38 -10 52 -15 14 -5 39 -10 55 -10 17 1 41 0 55 0 52 0 84 95 60 181 -14 52 -14 49 1 119 21 92 -18 247 -76 305 -19 18 -45 21 -45 5z m-5 -81 c7 -55 9 -59 15 -33 5 18 6 1 5 -43 -3 -77 -13 -99 -39 -89 -20 8 -21 41 -11 190 4 46 5 48 14 43 4 -3 12 -34 16 -68z m0 -498 c17 -19 17 -20 1 -20 -10 0 -27 5 -38 11 -17 9 -18 13 -7 20 20 12 24 11 44 -11z"/><default:path d="M5447 1860 c-44 -52 -70 -135 -71 -230 0 -48 5 -94 11 -106 9 -16 9 -30 -4 -65 -19 -55 -13 -131 14 -167 17 -23 28 -27 74 -28 30 0 64 5 76 13 12 7 33 13 46 13 29 0 53 25 62 65 5 26 4 25 -11 -8 -19 -44 -47 -54 -89 -33 -29 15 -65 7 -65 -14 0 -6 8 -5 19 1 10 7 27 9 37 5 17 -7 18 -8 2 -17 -9 -5 -31 -9 -50 -8 -18 0 -41 -1 -52 -3 -44 -8 -78 89 -56 166 l12 43 60 7 c43 4 67 2 88 -9 16 -8 43 -15 60 -15 23 0 33 -6 39 -22 6 -15 7 0 4 42 -7 76 -13 92 -13 32 0 -37 -3 -42 -23 -42 -12 0 -41 9 -62 20 -36 18 -45 19 -88 8 -58 -15 -64 -10 -77 65 -18 95 22 240 81 293 l22 19 -7 -35 c-4 -19 -9 -72 -12 -116 -6 -74 -4 -84 15 -103 16 -16 26 -19 40 -12 23 13 31 52 31 157 0 46 4 84 9 84 12 0 63 -164 72 -234 l8 -61 -3 72 c-3 78 -51 233 -71 233 -26 0 -44 -35 -39 -75 6 -57 6 -144 -1 -155 -10 -17 -34 -11 -45 11 -9 15 -7 37 4 89 9 38 16 81 16 96 0 19 4 25 15 20 8 -3 15 0 15 5 0 6 -9 9 -20 6 -13 -3 -20 0 -20 9 0 24 -27 16 -53 -16z m40 -112 c-3 -7 -5 -2 -5 12 0 14 2 19 5 13 2 -7 2 -19 0 -25z"/><default:path d="M540 1526 c0 -2 8 -10 18 -17 15 -13 16 -12 3 4 -13 16 -21 21 -21 13z"/><default:path d="M4580 1251 c0 -6 4 -13 10 -16 6 -3 7 1 4 9 -7 18 -14 21 -14 7z"/><default:path d="M5225 1240 c-3 -6 1 -7 9 -4 18 7 21 14 7 14 -6 0 -13 -4 -16 -10z"/><default:path d="M5537 1239 c7 -7 15 -10 18 -7 3 3 -2 9 -12 12 -14 6 -15 5 -6 -5z"/><default:path d="M3523 1055 c0 -8 4 -12 9 -9 5 3 6 10 3 15 -9 13 -12 11 -12 -6z"/><default:path d="M3196 1048 c3 -5 10 -6 15 -3 13 9 11 12 -6 12 -8 0 -12 -4 -9 -9z"/><default:path d="M3555 997 c-43 -43 -58 -98 -45 -163 23 -112 29 -167 35 -324 7 -199 18 -264 52 -298 21 -21 27 -23 39 -11 13 14 17 34 29 144 4 33 13 89 21 125 8 36 19 111 25 167 5 55 16 120 24 143 15 43 20 135 9 164 -9 23 -107 86 -134 86 -12 0 -37 -15 -55 -33z m103 3 c15 -12 38 -29 50 -38 32 -24 39 -91 19 -163 -32 -107 -86 -128 -153 -59 -44 45 -52 64 -53 133 -1 53 9 78 47 120 31 32 55 34 90 7z m-28 -315 c18 -4 34 0 51 13 l25 20 -9 -86 c-4 -48 -15 -112 -23 -142 -8 -30 -19 -106 -26 -167 -14 -129 -26 -142 -60 -65 -19 40 -22 75 -29 252 -4 113 -11 214 -15 225 -5 15 1 12 27 -12 19 -17 45 -34 59 -38z"/><default:path d="M4922 1005 c-29 -37 -44 -119 -32 -170 6 -22 12 -98 14 -170 6 -171 31 -259 90 -314 40 -38 60 -23 52 42 -18 136 -19 222 -3 235 13 11 17 7 27 -23 12 -36 15 -158 5 -175 -3 -4 3 -18 13 -30 17 -21 18 -21 39 -3 37 30 75 179 80 308 2 61 7 142 10 181 5 65 3 73 -20 100 -23 26 -32 29 -94 31 -37 1 -89 5 -114 8 -42 6 -48 4 -67 -20z m113 -1 c29 -12 44 -13 67 -5 24 8 38 7 64 -5 39 -19 49 -51 39 -130 -6 -51 -8 -54 -34 -54 -16 0 -46 -7 -67 -16 -24 -10 -50 -14 -73 -9 -20 3 -54 7 -76 8 -46 2 -52 13 -54 89 -2 77 31 138 74 138 13 0 39 -7 60 -16z m160 -246 c9 -40 -1 -124 -27 -223 -43 -165 -73 -179 -74 -34 -1 126 -27 179 -65 132 -17 -19 -16 -118 1 -211 14 -78 6 -92 -30 -57 -56 54 -73 115 -78 272 -5 165 -3 168 78 139 43 -15 51 -16 86 -2 80 31 100 28 109 -16z"/><default:path d="M4960 990 c-11 -7 -6 -10 21 -10 19 0 41 -6 47 -12 8 -8 40 -13 77 -13 60 0 62 1 38 14 -20 10 -31 10 -50 2 -21 -9 -31 -8 -58 9 -36 22 -53 24 -75 10z"/><default:path d="M3035 1012 c-16 -2 -33 -9 -37 -15 -14 -22 -8 -162 12 -257 11 -52 22 -144 25 -205 7 -128 30 -248 50 -265 33 -28 40 -5 53 161 7 90 21 205 32 254 29 129 27 289 -4 313 -14 12 -91 20 -131 14z m132 -25 c4 -5 9 -52 11 -105 l4 -97 -29 -17 c-15 -10 -38 -24 -50 -33 -20 -15 -23 -14 -59 22 -38 38 -38 39 -42 132 -4 71 -1 95 9 103 16 10 144 6 156 -5z m-14 -329 c-13 -62 -27 -174 -31 -248 -4 -80 -11 -135 -17 -134 -20 2 -35 54 -45 155 -19 190 -30 284 -36 309 l-6 25 26 -27 c34 -35 45 -35 91 2 21 17 38 30 39 30 1 0 -9 -51 -21 -112z"/><default:path d="M3249 1004 c-14 -17 -8 -194 15 -430 20 -213 67 -364 112 -364 15 0 35 39 28 52 -7 11 25 487 36 540 15 78 15 178 -1 192 -21 20 -175 28 -190 10z m176 -18 c16 -12 18 -23 12 -103 -8 -107 -9 -110 -53 -146 -39 -33 -57 -30 -103 13 -31 28 -31 29 -31 132 0 58 3 108 7 111 12 13 149 7 168 -7z m-82 -286 c11 0 34 12 50 28 l30 27 -7 -25 c-3 -14 -11 -132 -18 -262 -9 -180 -15 -238 -25 -238 -36 0 -80 165 -94 350 -5 74 -12 144 -16 154 -5 17 -1 16 26 -7 18 -15 42 -27 54 -27z"/><default:path d="M3880 991 c-69 -43 -73 -50 -66 -128 3 -37 10 -153 16 -257 12 -207 25 -258 81 -334 50 -69 63 -56 70 68 4 58 11 123 18 145 6 22 11 69 12 105 0 36 9 97 20 135 35 120 44 181 32 208 -10 21 -109 87 -130 87 -5 0 -28 -13 -53 -29z m170 -48 c6 -5 2 -100 -6 -135 -3 -16 -12 -28 -19 -28 -8 0 -27 -14 -44 -32 l-29 -32 -41 27 c-22 15 -47 27 -55 27 -26 0 -45 101 -30 155 3 12 28 35 57 52 l51 31 56 -31 c30 -17 57 -32 60 -34z m-23 -187 c-26 -66 -43 -200 -54 -401 -2 -55 -8 -104 -13 -108 -10 -11 -54 47 -81 108 -17 39 -22 73 -25 179 -3 72 -6 152 -8 179 -4 55 3 57 55 21 43 -29 69 -26 93 11 18 27 42 34 33 11z"/><default:path d="M4176 995 c-27 -13 -52 -29 -56 -35 -13 -22 2 -126 28 -190 23 -57 27 -81 29 -189 1 -97 7 -140 24 -193 29 -90 57 -133 89 -133 24 0 25 3 23 53 -1 29 7 99 18 155 11 56 23 143 26 192 2 50 11 104 19 122 8 17 14 58 14 91 l0 59 -62 47 c-35 25 -72 46 -83 45 -11 0 -42 -11 -69 -24z m142 -30 c59 -43 62 -47 62 -88 0 -23 -5 -59 -11 -79 -9 -33 -14 -38 -40 -38 -16 0 -38 -5 -49 -12 -15 -10 -27 -10 -55 0 -19 8 -40 10 -45 7 -16 -10 -41 61 -47 136 -5 61 -4 69 13 75 10 3 35 14 54 25 19 10 40 19 45 19 6 0 39 -20 73 -45z m28 -308 c-4 -51 -14 -124 -23 -162 -9 -39 -17 -106 -18 -149 -1 -88 -11 -102 -43 -61 -47 59 -64 132 -72 295 -4 85 -5 157 -3 159 2 3 19 -1 38 -8 29 -10 39 -10 62 3 15 8 36 15 47 16 18 0 18 -6 12 -93z"/><default:path d="M1635 990 c-16 -11 -45 -30 -63 -41 -41 -26 -48 -57 -33 -133 6 -34 18 -115 26 -181 8 -66 22 -150 30 -187 9 -38 15 -97 13 -133 -5 -109 40 -110 90 -2 40 83 52 148 52 273 0 90 4 113 26 167 19 45 27 81 28 131 l1 69 -50 28 c-60 33 -81 35 -120 9z m85 -10 c22 -11 46 -20 54 -20 22 0 26 -24 17 -98 -10 -80 -29 -125 -48 -117 -8 2 -29 -2 -48 -9 -28 -12 -36 -12 -52 0 -10 7 -30 14 -46 14 -35 0 -47 29 -47 110 0 55 2 59 33 79 17 11 46 30 62 41 36 24 28 24 75 0z m-81 -256 c18 -13 28 -14 47 -5 14 6 34 11 46 11 16 0 18 -4 12 -17 -4 -10 -8 -67 -9 -128 -1 -60 -5 -131 -9 -156 -11 -62 -66 -173 -89 -177 -17 -3 -18 2 -14 55 2 32 -1 81 -8 108 -14 51 -30 166 -40 268 -4 54 -4 57 18 57 12 0 33 -7 46 -16z"/><default:path d="M2782 1003 c-13 -2 -28 -16 -33 -31 -19 -47 -14 -190 10 -302 12 -58 26 -172 32 -255 5 -82 14 -154 19 -159 33 -33 79 105 80 237 0 71 22 237 40 297 12 43 13 180 1 199 -10 15 -104 24 -149 14z m140 -26 c3 -6 5 -51 2 -99 -3 -84 -5 -91 -36 -124 -39 -41 -57 -42 -88 -9 -13 14 -29 25 -37 25 -10 0 -13 21 -13 84 0 116 8 134 62 138 56 4 101 -2 110 -15z m-133 -241 c36 -39 60 -39 94 -3 29 31 30 31 24 7 -11 -40 -26 -157 -36 -280 -9 -115 -27 -191 -46 -193 -6 -1 -13 47 -17 118 -7 130 -22 240 -43 323 -15 58 -9 64 24 28z"/><default:path d="M4459 993 c-24 -28 -18 -150 9 -201 19 -37 22 -58 22 -155 0 -174 36 -305 95 -343 48 -32 55 -17 48 109 -7 132 -1 167 27 167 17 0 20 -7 20 -40 0 -23 7 -55 16 -72 9 -16 18 -54 21 -84 7 -63 24 -75 59 -37 37 40 48 96 35 175 -18 111 -14 196 14 276 28 81 26 135 -7 177 -24 30 -89 44 -141 31 -28 -8 -43 -7 -57 2 -30 19 -145 16 -161 -5z m92 -9 c21 -11 43 -13 74 -8 36 5 51 2 81 -16 36 -23 36 -23 23 -1 -8 11 -21 21 -29 21 -13 0 -13 1 0 10 10 6 16 6 18 0 2 -6 19 -10 37 -10 41 0 62 -20 71 -66 8 -43 0 -112 -15 -127 -6 -6 -30 -10 -53 -10 -22 1 -52 -4 -66 -11 -18 -10 -34 -11 -58 -3 -22 7 -46 6 -74 -1 -23 -6 -48 -8 -55 -6 -21 9 -49 96 -48 151 2 89 29 111 94 77z m54 6 c7 -12 -12 -12 -40 0 -18 8 -17 9 7 9 15 1 30 -3 33 -9z m182 -279 c-8 -40 -7 -77 1 -136 17 -118 15 -175 -8 -212 -28 -47 -50 -43 -50 7 0 21 -9 62 -20 90 -11 28 -20 64 -20 79 0 33 -20 54 -44 45 -29 -11 -40 -80 -28 -184 11 -104 5 -125 -29 -94 -55 50 -89 173 -89 329 l0 100 55 13 c42 10 60 10 76 1 16 -8 31 -8 58 0 27 8 87 17 108 16 0 0 -4 -25 -10 -54z"/><default:path d="M4740 926 c0 -2 7 -7 16 -10 8 -3 12 -2 9 4 -6 10 -25 14 -25 6z"/><default:path d="M5297 992 c-19 -21 -24 -121 -7 -152 6 -11 11 -68 13 -127 2 -91 7 -117 29 -164 24 -54 88 -129 109 -129 19 0 21 31 6 78 -41 123 -44 207 -9 200 22 -4 40 -74 41 -160 1 -73 12 -85 45 -49 43 47 56 143 35 256 -9 50 -8 67 7 110 15 46 15 56 3 96 -13 41 -17 44 -49 44 -19 1 -43 5 -53 9 -11 5 -34 4 -54 -2 -24 -7 -42 -8 -54 -2 -26 15 -44 12 -62 -8z m183 -12 c14 -11 32 -19 40 -19 10 0 11 2 3 6 -18 7 -16 23 2 23 21 0 35 -32 35 -79 0 -90 -42 -116 -139 -87 -38 11 -59 12 -78 5 -35 -13 -45 -2 -51 60 -7 79 2 101 43 101 19 0 35 -4 35 -10 0 -5 -5 -10 -12 -10 -6 0 -9 -2 -6 -5 2 -3 22 4 44 15 49 24 53 24 84 0z m1 -173 l57 -2 12 -82 c6 -45 9 -101 5 -125 -8 -49 -41 -118 -55 -118 -6 0 -10 33 -10 75 0 75 -18 141 -43 157 -6 4 -20 0 -29 -9 -25 -23 -23 -87 7 -180 13 -43 21 -81 16 -86 -10 -10 -64 51 -90 102 -41 78 -52 251 -18 273 6 5 30 6 52 2 22 -3 65 -7 96 -7z"/><default:path d="M1300 984 c-28 -7 -49 -8 -57 -2 -17 14 -103 -2 -124 -23 -24 -24 -42 -93 -34 -131 4 -17 16 -49 26 -72 22 -48 25 -160 8 -264 -13 -80 -2 -137 35 -171 36 -34 52 -22 59 42 3 30 12 69 21 85 9 17 16 47 16 66 0 42 18 56 37 30 12 -15 14 -47 11 -149 -3 -113 -1 -130 13 -133 29 -5 77 55 100 126 17 50 24 103 28 212 5 118 10 151 26 180 27 48 28 171 2 197 -21 21 -97 24 -167 7z m-64 -15 c4 -8 0 -9 -15 -4 -16 5 -20 3 -15 -9 4 -12 11 -13 24 -6 10 5 45 9 77 8 32 -1 68 4 80 10 34 18 71 15 78 -7 13 -43 7 -129 -14 -176 l-21 -48 -48 8 c-26 4 -56 6 -67 5 -26 -3 -57 -2 -128 6 -69 7 -87 27 -87 97 0 61 22 105 58 113 15 3 32 7 37 9 20 7 34 5 41 -6z m127 4 c-7 -2 -21 -2 -30 0 -10 3 -4 5 12 5 17 0 24 -2 18 -5z m-124 -237 c18 -10 33 -11 51 -4 14 5 45 6 70 2 25 -4 51 -6 58 -5 10 1 12 -28 9 -131 -5 -155 -28 -246 -78 -299 -43 -46 -52 -30 -38 66 17 123 -2 209 -44 203 -18 -2 -23 -12 -28 -48 -3 -25 -12 -58 -19 -75 -7 -16 -16 -52 -19 -80 -7 -60 -25 -65 -53 -15 -17 31 -19 46 -12 135 10 133 10 194 2 230 -7 30 -6 31 34 32 22 1 53 -4 67 -11z"/><default:path d="M1940 974 c-68 -37 -80 -55 -74 -117 3 -29 15 -80 26 -114 22 -70 46 -253 55 -416 4 -84 9 -110 21 -115 18 -6 53 33 86 98 34 65 37 86 48 290 5 102 12 217 14 257 l6 71 -56 36 c-31 20 -62 36 -69 35 -6 0 -32 -11 -57 -25z m118 -19 c52 -35 52 -36 52 -89 0 -66 -17 -116 -38 -116 -10 0 -28 -9 -42 -20 -35 -27 -57 -25 -88 8 -15 16 -33 31 -41 33 -9 3 -15 28 -18 79 l-5 75 58 32 c33 17 61 32 64 32 3 1 29 -15 58 -34z m-113 -235 c35 -36 42 -37 85 -5 60 44 61 42 54 -132 -3 -87 -12 -181 -20 -209 -14 -54 -72 -149 -89 -149 -6 0 -11 36 -12 85 -1 47 -6 110 -12 140 -6 30 -12 89 -15 130 -3 41 -12 96 -20 123 -8 26 -11 47 -7 47 4 0 20 -13 36 -30z"/><default:path d="M886 978 c-11 -6 -40 -8 -70 -4 -102 12 -139 -43 -117 -170 6 -33 10 -95 10 -139 0 -91 40 -266 67 -296 19 -22 53 -25 55 -6 1 6 2 53 3 102 1 57 6 99 15 115 l14 25 14 -30 c13 -31 10 -119 -8 -204 -11 -48 -4 -81 15 -81 25 0 76 63 97 119 17 43 23 92 30 211 4 85 11 170 15 188 18 87 -29 182 -89 182 -18 0 -40 -6 -51 -12z m93 -17 c20 -20 45 -117 37 -142 -2 -8 -7 -25 -10 -39 -4 -22 -11 -25 -51 -27 -105 -6 -132 -5 -175 7 -25 7 -51 14 -58 16 -9 3 -12 24 -10 81 3 77 3 78 36 94 25 13 40 15 65 7 24 -8 41 -6 67 5 48 21 77 20 99 -2z m-168 -222 c59 -20 62 -21 99 -4 24 11 49 15 64 11 25 -6 26 -9 26 -84 -1 -177 -39 -311 -99 -351 l-24 -16 7 60 c19 167 19 204 2 230 -9 14 -21 25 -27 25 -21 0 -40 -72 -39 -149 2 -102 2 -101 -14 -101 -32 0 -86 200 -86 315 0 67 3 76 27 84 2 1 30 -8 64 -20z"/><default:path d="M876 941 c-23 -15 -34 -17 -57 -9 -19 6 -34 6 -48 -2 -12 -6 -21 -12 -21 -13 0 -10 120 1 133 12 10 8 31 12 53 9 32 -4 34 -3 18 9 -24 18 -44 16 -78 -6z"/><default:path d="M850 660 c-9 -6 -10 -10 -3 -10 6 0 15 5 18 10 8 12 4 12 -15 0z"/><default:path d="M2477 972 c-21 -23 -21 -66 -1 -201 9 -58 21 -210 27 -338 7 -127 15 -234 19 -238 16 -16 47 9 67 55 33 77 50 164 62 320 5 80 15 162 20 183 10 37 11 183 1 219 -4 16 -16 18 -92 18 -71 0 -90 -3 -103 -18z m183 -111 l0 -118 -38 -27 c-49 -34 -61 -33 -100 7 -30 31 -34 42 -43 128 -10 90 -10 94 11 111 17 14 40 18 96 18 l74 0 0 -119z m-127 -168 c12 -20 56 -15 89 8 l30 22 -6 -49 c-3 -27 -8 -89 -12 -139 -9 -147 -62 -335 -93 -335 -12 0 -21 27 -15 44 7 17 -24 464 -33 479 -9 16 30 -14 40 -30z"/><default:path d="M454 949 c-4 -6 -20 -8 -40 -5 -27 6 -35 3 -47 -16 -25 -39 -28 -75 -11 -123 13 -38 13 -59 5 -115 -20 -127 -10 -196 36 -250 20 -25 28 -28 40 -19 8 7 14 27 13 48 -5 98 0 139 20 162 17 21 21 22 30 9 15 -21 6 -103 -20 -178 -35 -99 -10 -122 55 -51 60 67 78 118 86 249 3 63 12 135 18 160 24 89 -12 152 -76 130 -20 -8 -38 -8 -57 0 -35 13 -43 13 -52 -1z m-50 -30 c-14 -6 -15 -8 -3 -8 8 -1 24 6 35 14 25 19 62 19 98 0 31 -16 50 -20 27 -6 -12 8 -9 11 12 16 17 5 33 2 42 -5 19 -16 20 -99 1 -143 -8 -20 -11 -54 -8 -90 5 -64 -12 -165 -35 -212 -19 -37 -83 -106 -94 -100 -4 3 4 39 17 80 36 113 30 195 -13 195 -27 0 -46 -50 -51 -140 -2 -50 -9 -90 -13 -90 -13 0 -45 69 -53 112 -4 21 -2 75 5 122 l12 84 66 7 c36 4 85 7 108 8 23 1 39 6 36 10 -5 9 -59 5 -130 -9 -47 -9 -78 2 -91 31 -27 59 -3 152 35 138 15 -6 14 -7 -3 -14z"/><default:path d="M2045 221 c-3 -5 -2 -12 3 -15 5 -3 9 1 9 9 0 17 -3 19 -12 6z"/><default:path d="M2255 1401 c-3 -5 -2 -12 3 -15 5 -3 9 1 9 9 0 17 -3 19 -12 6z"/></default:g></svg>