<svg xmlns="http://www.w3.org/2000/svg"  width="0" height="0">

    <!--
        All symbols are svg definitions optimised with svgo

        Adding new images:

        1. Get the images as svg files.
        2. Install svgo from https://github.com/svg/svgo
        3. Put the svg files in a folder, e.g. new-optimised-images
        4. Run svgo on the folder:  svgo -f new-optimised-images
        5. For each image, copy the optimised paths into a symbol in this file:
            5.1. Remove viewBox attribute. Set width and height attribute.
                 Width and height must both be defined here.
                 A viewBox of "0 0 <width> <height>" will be used automatically in the tag helper.
            5.2. Remove any fill definitions from paths
            5.3. Remove any <title>, <desc> and <defs> elements
            5.4. Set a unique id for the symbol and remove any ids and classes from the paths
            5.5. Set width and height for the symbol from the svg data

        The ids contain the names of the images that will be used in the site.

    -->

    <symbol id="derec-logo" width="168" height="44"><path d="M30.8 42.7H20.3l-.2-2.3c-1.8 1.9-4.4 2.8-7.7 2.8-3.8 0-6.7-1.2-8.7-3.7C1.7 37 .8 33.4.8 28.7c0-5.2 1.3-9 4-11.5 2.6-2.5 6.4-3.8 11.1-3.8 1.5 0 2.9.1 4.2.2V1.9L30.8.5v42.2zm-10.7-8.4v-13c-1-.1-1.9-.2-2.7-.2-1.7 0-3 .5-4 1.6-1 1-1.4 2.9-1.4 5.6 0 4.4 1.5 6.6 4.4 6.6 1.3 0 2.6-.2 3.7-.6zM63 40.1c-4.2 2.3-8.8 3.4-13.7 3.4-4.5 0-8-1.3-10.4-3.9-2.4-2.6-3.6-6.2-3.6-10.6 0-5 1.4-8.9 4.2-11.6 2.8-2.7 6.3-4 10.5-4 1.9 0 3.7.2 5.2.6 1.5.4 2.7.9 3.7 1.7.9.8 1.7 1.6 2.3 2.4.6.9 1.1 1.9 1.4 3.2.3 1.2.5 2.4.6 3.5.1 1.1.2 2.3.2 3.7 0 1-.1 2.1-.2 3.1H45.5c0 .3 0 .5.1.8.5 2.2 2.4 3.3 5.5 3.3 3.4 0 6.5-.6 9.2-1.7l2.7 6.1zM53.6 25c0-.3.1-.7.1-1.4 0-2.1-1.2-3.2-3.7-3.2-2.7 0-4.1 1.5-4.1 4.6h7.7zm24.7 17.7H67.6v-28l10.6-1.4v4.6c1.7-3.1 4.3-4.6 7.8-4.6.8 0 1.7.1 2.6.2l-1 8.9c-.8-.2-2-.3-3.5-.3-2.4 0-4.3.2-5.8.7v19.9zm40-2.6c-4.2 2.3-8.8 3.4-13.7 3.4-4.5 0-8-1.3-10.4-3.9-2.4-2.6-3.6-6.2-3.6-10.6 0-5 1.4-8.9 4.2-11.6 2.8-2.7 6.3-4 10.5-4 1.9 0 3.7.2 5.2.6 1.5.4 2.7.9 3.7 1.7.9.8 1.7 1.6 2.3 2.4.6.9 1.1 1.9 1.4 3.2.3 1.2.5 2.4.6 3.5.1 1.1.2 2.3.2 3.7 0 1-.1 2.1-.2 3.1H101c0 .3 0 .5.1.8.5 2.2 2.4 3.3 5.5 3.3 3.4 0 6.5-.6 9.2-1.7-.1-.1 2.5 6.1 2.5 6.1zM108.9 25c0-.3.1-.7.1-1.4 0-2.1-1.2-3.2-3.7-3.2-2.7 0-4.1 1.5-4.1 4.6h7.7zm37.7 16c-3.3 1.7-7.2 2.5-11.5 2.5-4.2 0-7.5-1.3-9.9-3.9s-3.6-6.1-3.6-10.5c0-5.1 1.3-9 3.9-11.7 2.6-2.7 6.5-4.1 11.6-4.1 3.2 0 6.1.4 8.6 1.2l-2.2 8c-1.8-.6-3.8-.9-6.1-.9-1.8 0-3.2.5-4.2 1.4s-1.4 2.9-1.4 5.9c0 4.5 1.9 6.7 5.7 6.7 2.2 0 4.3-.4 6.3-1.2l2.8 6.6zm20.7-28.4c0 2-.7 3.7-2 5s-3 2-5.1 2c-2 0-3.7-.7-5-2s-2-3-2-5 .7-3.7 2-5 3-2 5-2 3.7.7 5.1 2c1.3 1.3 2 3 2 5zm-.8 0c0-1.8-.6-3.3-1.8-4.5s-2.7-1.8-4.5-1.8c-1.8 0-3.3.6-4.5 1.8s-1.8 2.7-1.8 4.5c0 1.8.6 3.3 1.8 4.5s2.7 1.8 4.5 1.8 3.3-.6 4.5-1.8 1.8-2.7 1.8-4.5zm-4.2 4l-2-3.4h-1.5v3.4h-1.5V8.3h2.6c.9 0 1.6.1 2.1.2 1 .3 1.5 1 1.5 2.1 0 1.2-.6 2-1.7 2.4l2.2 3.6h-1.7zm-3.5-4.5h1c.7 0 1.2-.1 1.5-.2.4-.2.6-.6.6-1.1 0-.6-.2-.9-.7-1.1-.3-.1-.7-.1-1.4-.1h-1v2.5z"/></symbol>
    <symbol id="back" width="21" height="21"><path d="M21 11.8H5l7.3 7.3-1.8 1.9L0 10.5 10.5 0l1.9 1.9L5 9.2h16v2.6z"/></symbol>
    <symbol id="close" width="21" height="21"><path d="M17.5 4.9l-1.4-1.4-5.6 5.6-5.6-5.6-1.4 1.4 5.6 5.6-5.6 5.6 1.4 1.4 5.6-5.6 5.6 5.6 1.4-1.4-5.6-5.6 5.6-5.6z"/></symbol>
    <symbol id="tools" width="23" height="24"><path d="M15.27 3.956l.892.52s2.662-.465 2.816-.479c.806-.099 1.673.334 2.078 1.036l1.117 1.934c.407.705.349 1.676-.122 2.29-.11.154-1.84 2.226-1.84 2.226s.011.153.011.517c0 .175-.015.524-.015.524s1.735 2.065 1.824 2.192c.488.648.547 1.615.142 2.317l-1.117 1.934c-.407.705-1.277 1.14-2.052 1.039-.007 0-2.856-.483-2.856-.483l-.877.517s-.931 2.538-.996 2.679c-.317.746-1.126 1.281-1.936 1.281h-2.234c-.814 0-1.625-.536-1.922-1.251-.078-.172-1.012-2.718-1.012-2.718l-.894-.51s-2.656.468-2.81.482c-.806.099-1.673-.334-2.079-1.036L.271 17.033c-.406-.705-.348-1.676.123-2.29.11-.154 1.841-2.228 1.841-2.228s-.013-.151-.013-.515c0-.172.015-.514.015-.514S.503 9.411.414 9.285C-.075 8.637-.134 7.669.27 6.967l1.117-1.934c.407-.705 1.277-1.14 2.045-1.04.188.018 2.87.485 2.87.485l.881-.523s.92-2.532.986-2.673C8.487.535 9.295 0 10.105 0h2.234c.814 0 1.626.536 1.922 1.25.079.172 1.01 2.706 1.01 2.706zm-1.978 1.75l-.161-.54c-.235-.784-.899-2.562-.97-2.728-.04-.096-1.837-.096-1.878 0-.07.166-.735 1.944-.969 2.728l-.161.54-.518.22c-.49.209-.951.476-1.376.796l-.45.339-.549-.13c-.797-.19-2.67-.503-2.85-.525-.103-.013-1.001 1.542-.938 1.626.109.145 1.317 1.61 1.879 2.205l.386.408-.067.559a6.68 6.68 0 0 0 0 1.592l.067.559-.386.408c-.562.595-1.77 2.06-1.88 2.205-.062.084.836 1.639.94 1.626.18-.022 2.052-.335 2.849-.525l.548-.13.45.339c.426.32.888.587 1.377.796l.518.22.161.54c.234.784.899 2.562.97 2.728.04.096 1.836.096 1.877 0 .071-.166.735-1.944.97-2.728l.16-.54.519-.22c.489-.209.95-.476 1.376-.796l.45-.34.549.131c.796.19 2.669.503 2.849.525.061.008 1.002-1.542.939-1.626-.11-.145-1.317-1.61-1.88-2.205l-.385-.409.067-.558a6.68 6.68 0 0 0 0-1.592l-.067-.558.386-.409c.562-.595 1.77-2.06 1.879-2.205.063-.084-.835-1.639-.94-1.626-.179.022-2.052.336-2.848.525l-.549.13-.45-.339a6.592 6.592 0 0 0-1.376-.796l-.518-.22zm-2.07 9.894a3.6 3.6 0 1 1 0-7.2 3.6 3.6 0 0 1 0 7.2zm0-2.4a1.2 1.2 0 1 0 0-2.4 1.2 1.2 0 0 0 0 2.4z"/></symbol>
    <symbol id="jaws" width="28" height="28"><path d="M20.9 17.4c-.3 2.9-1.7 5.2-3.5 5.2s-3.2-2.2-3.5-5.2c-.3 2.9-1.7 5.2-3.5 5.2s-3.2-2.3-3.5-5.3c-.2 2.2-1.3 3.8-2.7 3.8-1.5 0-2.7-2.1-2.7-4.7.1-.7 1.3-1.2 2.7-1.2 1.3 0 2.4.5 2.6 1.1.3-.8 1.8-1.4 3.5-1.4s3.2.6 3.4 1.4c.3-.8 1.8-1.4 3.5-1.4s3.1.6 3.4 1.4c.2-.6 1.4-1 2.7-1 1.4 0 2.6.5 2.7 1.2v.1c0 2.6-1.2 4.6-2.7 4.6-1.1-.1-2.2-1.7-2.4-3.8zm-14.8-6c.3-3.4 1.9-6 3.9-6s3.7 2.6 3.9 5.9c.3-3.3 1.9-5.9 3.9-5.9s3.7 2.6 4 6c.3-2.5 1.5-4.4 3-4.4 1.7 0 3.1 2.4 3.1 5.4-.1.8-1.5 1.4-3.1 1.4-1.5 0-2.8-.5-3-1.2-.3.9-2 1.6-4 1.6s-3.6-.7-3.9-1.6c-.3.9-2 1.6-4 1.6-1.9 0-3.6-.7-3.9-1.6-.3.7-1.6 1.2-3.1 1.2-1.6 0-3-.6-3-1.4v-.1C-.1 9.4 1.3 7 3 7c1.6.1 2.8 1.9 3.1 4.4z"/></symbol>
    <symbol id="upper-jaw" width="28" height="28"><path d="M6.1 15.5C6.4 12.2 8 9.6 10 9.6s3.7 2.6 3.9 5.9c.3-3.3 1.9-5.9 3.9-5.9s3.7 2.6 4 6c.3-2.5 1.5-4.4 3-4.4 1.7 0 3.1 2.4 3.1 5.4-.1.8-1.5 1.4-3.1 1.4-1.5 0-2.8-.5-3-1.2-.3.9-2 1.6-4 1.6s-3.6-.7-3.9-1.6c-.3.9-2 1.6-4 1.6-1.9 0-3.6-.7-3.9-1.6-.1.7-1.5 1.2-3 1.2-1.6 0-3-.6-3-1.4v-.1c0-2.9 1.4-5.3 3.1-5.3 1.5.1 2.7 1.9 3 4.3z"/></symbol>
    <symbol id="lower-jaw" width="28" height="28"><path d="M20.9 12.6c-.3 2.9-1.7 5.2-3.5 5.2s-3.2-2.2-3.5-5.2c-.3 2.9-1.7 5.2-3.5 5.2s-3.2-2.3-3.5-5.3c-.2 2.2-1.3 3.8-2.7 3.8-1.5 0-2.7-2.1-2.7-4.7.3-.6 1.5-1.1 2.9-1.1 1.3 0 2.4.5 2.6 1.1.3-.8 1.8-1.4 3.5-1.4s3.2.6 3.4 1.4c.3-.8 1.8-1.4 3.5-1.4s3.1.6 3.4 1.4c.2-.6 1.4-1 2.7-1 1.4 0 2.6.5 2.7 1.2v.1c0 2.6-1.2 4.6-2.7 4.6-1.2-.1-2.3-1.7-2.6-3.9z"/></symbol>
    <symbol id="dashboard" width="28" height="28"><path d="M14 14c2.9 0 5.3-2.4 5.3-5.3S16.9 3.4 14 3.4 8.7 5.8 8.7 8.7 11.1 14 14 14zm0 2.7c-3.6 0-10.7 1.8-10.7 5.3v2.7h21.3V22c.1-3.6-7-5.3-10.6-5.3z"/></symbol>
    <symbol id="report" width="28" height="28"><path d="M14.8 17.5c-.6 0-1 .4-1 1.1 0 .6.4 1.1 1 1.1s1-.4 1-1.1c0-.6-.4-1.1-1-1.1zM9.9 17.5c-.6 0-1 .5-1 1.1 0 .7.5 1.1 1 1.1.6 0 1-.4 1-1.1.1-.6-.4-1.1-1-1.1z"/><path d="M21.7 1.8H6.5c-1 0-1.7.8-1.7 1.7v20.3c0 1 .8 1.7 1.7 1.7h15.2c1 0 1.7-.8 1.7-1.7V3.6c0-1-.7-1.8-1.7-1.8zM10.1 20.7c-.5 0-.9-.2-1.2-.5v2.1h-1v-5.6H9v.5c.3-.3.7-.5 1.2-.5 1.1 0 1.9.9 1.9 2.1-.1 1.1-.9 1.9-2 1.9zm6.7-.1h-1v-.5c-.3.4-.7.6-1.2.6-1.1 0-1.9-.8-1.9-2.1 0-1.2.8-2.1 1.9-2.1.5 0 .9.2 1.2.5v-2.5h1.1v6.1zm3.3-4.9c-.2-.1-.4-.2-.6-.2-.3 0-.4.2-.4.5v.6h.9v.9h-.9v3.1H18v-3.1h-.4v-.9h.4V16c0-.9.5-1.4 1.3-1.4.5 0 .8.2 1 .3l-.2.8zm-2.5-4.4l-.9-.9 1.9-1.9H14V7.3h4.6l-1.8-1.8.9-.9L21 8l-3.4 3.3z"/></symbol>

    <symbol id="hint" width="21" height="21"><path d="M4.8 5.6C4.9 2.7 7 .5 10.5.5c3.3 0 5.6 2.1 5.6 4.9 0 2-1 3.4-2.9 4.6-1.8 1.1-2.3 1.9-2.3 3.4v1H9.2v-1.3c0-1.8.8-3 2.7-4.2 1.7-1.1 2.4-2.1 2.4-3.6 0-1.9-1.5-3.3-3.7-3.3-2.3.1-3.8 1.5-4 3.6H4.8zm5.3 14.9c-.9 0-1.5-.6-1.5-1.5s.6-1.5 1.5-1.5 1.5.6 1.5 1.5c.2.9-.6 1.5-1.5 1.5z"/></symbol>
    <symbol id="history" width="24" height="22"><path d="M5.833 4.843l-1.147-.984c-.353.411-.675.848-.963 1.307l1.285.803c.246-.395.522-.772.825-1.126zM7.942 3.015L7.13 1.74c-.458.29-.893.615-1.303.97l.99 1.141a9.5 9.5 0 011.126-.836z"/><path d="M22.81 6.081A10.96 10.96 0 0013.007.034a10.9 10.9 0 00-4.448.939l.613 1.381a9.449 9.449 0 113.835 18.09 9.373 9.373 0 01-8.44-5.212l-1.352.676c2.713 5.41 9.3 7.598 14.71 4.884 5.412-2.713 7.599-9.3 4.885-14.71z"/><path d="M4.535 8.948l-.901.9a9.191 9.191 0 01.715-2.645l-1.386-.605a8.325 8.325 0 00-.214.53 10.697 10.697 0 00-.657 2.844L1.07 8.948 0 10.018l2.802 2.801 2.802-2.802-1.069-1.069zM11.873 4.191v7.56h4.535v-1.512h-3.023V4.19zM17.92 10.239h1.512v1.512H17.92zM11.873 16.286h1.512v1.512h-1.512z"/></symbol>

    <symbol id="audio-on" width="21" height="21"><path d="M1.5 7.5v6h4l5 5v-16l-5 5h-4zm13.5 3c0-1.8-1-3.3-2.5-4v8c1.5-.7 2.5-2.2 2.5-4zm-2.5-8.8v2.1c2.9.9 5 3.5 5 6.7s-2.1 5.8-5 6.7v2.1c4-.9 7-4.5 7-8.8s-3-7.9-7-8.8z"/></symbol>
    <symbol id="audio-off" width="21" height="21"><path d="M15 10.5c0-1.8-1-3.3-2.5-4v2.2l2.5 2.4v-.6zm2.5 0c0 .9-.2 1.8-.5 2.6l1.5 1.5c.7-1.2 1-2.6 1-4.1 0-4.3-3-7.9-7-8.8v2.1c2.9.9 5 3.5 5 6.7zm-14.7-9L1.5 2.8l4.7 4.7H1.5v6h4l5 5v-6.7l4.2 4.2c-.7.5-1.4.9-2.2 1.2v2.1c1.4-.3 2.6-1 3.7-1.8l2 2 1.3-1.3-9-9-7.7-7.7zm7.7 1L8.4 4.6l2.1 2.1V2.5z"/></symbol>

</svg>
